<svg xmlns="http://www.w3.org/2000/svg" viewBox="0 0 188 120"><defs><style>.cls-1{isolation:isolate;}.cls-2{fill:#654c95;}.cls-3{fill:#4d3475;}.cls-4{fill:#a38ac3;}.cls-5{fill:#6a5594;opacity:0.24;mix-blend-mode:multiply;}.cls-6{fill:#fff;}.cls-7{fill:#f4f6ff;}.cls-8{fill:#e79005;}.cls-9{fill:#f9cf59;}.cls-10{fill:#f5b900;}.cls-11{fill:#00b7b1;}.cls-12{fill:none;stroke:#6a5594;stroke-miterlimit:10;}</style></defs><title>Asset 1</title><g class="cls-1"><g id="Layer_2" data-name="Layer 2"><g id="Layer_1-2" data-name="Layer 1"><rect class="cls-2" width="188" height="120" rx="6"/><path class="cls-3" d="M133,75.18A49.12,49.12,0,0,1,130.73,90a49.86,49.86,0,0,1-3.45,8.31H22.05a49.64,49.64,0,0,1-5.71-23.1c0-29.53,26.12-53.46,58.33-53.46a61.42,61.42,0,0,1,36.68,11.9A54,54,0,0,1,129.18,56.1c.58,1.4,1.1,2.83,1.55,4.29A49.07,49.07,0,0,1,133,75.18Z"/><path class="cls-4" d="M171.66,98.28H79.32C79.32,74.91,100,56,125.49,56c1.24,0,2.47.05,3.69.13l1.55.14C153.76,58.63,171.66,76.54,171.66,98.28Z"/><path class="cls-5" d="M133,43.53V95.6a9.86,9.86,0,0,1-.37,2.68H44.3a9.86,9.86,0,0,1-.37-2.68V43.53a9.91,9.91,0,0,1,9.91-9.91h69.25A9.91,9.91,0,0,1,133,43.53Z"/><path class="cls-6" d="M138.53,36.29V88.37a9.91,9.91,0,0,1-9.91,9.91H59.38a9.91,9.91,0,0,1-9.91-9.91V36.29a9.91,9.91,0,0,1,9.91-9.91h69.24A9.91,9.91,0,0,1,138.53,36.29Z"/><path class="cls-7" d="M138.53,36.29v8.55H49.47V36.29a9.91,9.91,0,0,1,9.91-9.91h69.24A9.91,9.91,0,0,1,138.53,36.29Z"/><circle class="cls-8" cx="58.48" cy="35.61" r="2.81"/><circle class="cls-9" cx="67.26" cy="35.61" r="2.81"/><circle class="cls-10" cx="76.04" cy="35.61" r="2.81"/><circle class="cls-11" cx="90.12" cy="81.96" r="2.81"/><circle class="cls-11" cx="100.55" cy="81.96" r="2.81"/><path class="cls-11" d="M107.85,59.81h0a2.81,2.81,0,0,0-3.66,1.56L103.13,64h0L101,69.19h0l-.68,1.66H91.09l-.67-1.66h0L88.31,64h0l-2.1-5.2H72.14a2.81,2.81,0,0,0-2.81,2.82h0a2.81,2.81,0,0,0,2.81,2.81H82.41l.68,1.69h0L85.2,71.3h0l2.11,5.21.07,0h16.68l.08,0v0h0v-.09l2-5.09h0l2.11-5.22h0l1.05-2.61A2.81,2.81,0,0,0,107.85,59.81Z"/><rect class="cls-11" x="94.62" y="58.76" width="15.23" height="5.61" rx="2.81"/><polyline class="cls-12" points="187.72 98.28 160.21 98.28 116.43 98.28 69.11 98.28 12.62 98.28 0.28 98.28"/></g></g></g></svg>