<svg xmlns="http://www.w3.org/2000/svg" viewBox="0 0 188 120"><defs><style>.cls-1{isolation:isolate;}.cls-2{fill:#654c95;}.cls-3{fill:#a38ac3;}.cls-4{fill:#4d3475;}.cls-5{fill:#6a5594;opacity:0.24;mix-blend-mode:multiply;}.cls-6{fill:#fff;}.cls-7{fill:#f4f6ff;}.cls-8{fill:#e79005;}.cls-9{fill:#f9cf59;}.cls-10{fill:#f5b900;}.cls-11,.cls-13{fill:none;stroke-miterlimit:10;}.cls-11{stroke:#6a5594;}.cls-12{fill:#00b7b1;}.cls-13{stroke:#00b7b1;stroke-width:2px;}</style></defs><title>Asset 9</title><g class="cls-1"><g id="Layer_2" data-name="Layer 2"><g id="Layer_1-2" data-name="Layer 1"><rect class="cls-2" width="188" height="120" rx="6"/><path class="cls-3" d="M132.59,76.59a49,49,0,0,1-5.66,22.85H22.81a49.1,49.1,0,0,1-5.65-22.85C17.16,47.37,43,23.7,74.87,23.7a60.81,60.81,0,0,1,36.3,11.76,53.44,53.44,0,0,1,17.64,22.25c.57,1.39,1.09,2.8,1.54,4.24A48.76,48.76,0,0,1,132.59,76.59Z"/><path class="cls-4" d="M170.84,99.44H79.47c0-23.11,20.45-41.86,45.69-41.86,1.23,0,2.44.05,3.65.13l1.54.14C153.13,60.21,170.84,77.94,170.84,99.44Z"/><path class="cls-5" d="M132.59,45.27V96.8a9.57,9.57,0,0,1-.37,2.64H44.83a9.2,9.2,0,0,1-.37-2.64V45.27a9.81,9.81,0,0,1,9.8-9.81h68.52A9.81,9.81,0,0,1,132.59,45.27Z"/><path class="cls-6" d="M138.06,38.11V89.64a9.79,9.79,0,0,1-9.8,9.8H59.74a9.79,9.79,0,0,1-9.8-9.8V38.11a9.8,9.8,0,0,1,9.8-9.8h68.52A9.8,9.8,0,0,1,138.06,38.11Z"/><path class="cls-7" d="M138.06,38.11v8.46H49.94V38.11a9.8,9.8,0,0,1,9.8-9.8h68.52A9.8,9.8,0,0,1,138.06,38.11Z"/><circle class="cls-8" cx="58.85" cy="37.44" r="2.78"/><circle class="cls-9" cx="67.54" cy="37.44" r="2.78"/><circle class="cls-10" cx="76.23" cy="37.44" r="2.78"/><polyline class="cls-11" points="188 99.44 160.41 99.44 116.5 99.44 69.04 99.44 12.38 99.44 0 99.44"/><path class="cls-12" d="M102.84,84.16H83A1.08,1.08,0,0,1,81.93,83L83.69,63.2a1.07,1.07,0,0,1,1.06-1h16.34a1.07,1.07,0,0,1,1.06,1L103.91,83A1.07,1.07,0,0,1,102.84,84.16Z"/><circle class="cls-13" cx="92.92" cy="62.22" r="4.64"/><circle class="cls-6" cx="88.28" cy="64.31" r="0.93"/><circle class="cls-6" cx="97.56" cy="64.31" r="0.93"/></g></g></g></svg>