<svg xmlns="http://www.w3.org/2000/svg" viewBox="0 0 188 120"><defs><style>.cls-1{isolation:isolate;}.cls-2{fill:#654c95;}.cls-3{fill:#4d3475;}.cls-4{fill:#a38ac3;}.cls-5{fill:#6a5594;opacity:0.24;mix-blend-mode:multiply;}.cls-6{fill:#fff;}.cls-7{fill:#f4f6ff;}.cls-8{fill:#e79005;}.cls-9{fill:#f9cf59;}.cls-10{fill:#f5b900;}.cls-11{fill:none;stroke:#6a5594;stroke-miterlimit:10;}.cls-12{fill:#5bbfbd;}.cls-13{fill:#00b7b1;}</style></defs><title>Asset 5</title><g class="cls-1"><g id="Layer_2" data-name="Layer 2"><g id="Layer_1-2" data-name="Layer 1"><rect class="cls-2" width="188" height="120" rx="6"/><path class="cls-3" d="M133,75.18A49.12,49.12,0,0,1,130.73,90a49.86,49.86,0,0,1-3.45,8.31H22.05a49.64,49.64,0,0,1-5.71-23.1c0-29.53,26.12-53.46,58.33-53.46a61.42,61.42,0,0,1,36.68,11.9A54,54,0,0,1,129.18,56.1c.58,1.4,1.1,2.83,1.55,4.29A49.07,49.07,0,0,1,133,75.18Z"/><path class="cls-4" d="M171.66,98.28H79.32C79.32,74.91,100,56,125.49,56c1.24,0,2.47.05,3.69.13l1.55.14C153.76,58.63,171.66,76.54,171.66,98.28Z"/><path class="cls-5" d="M133,43.53V95.6a9.86,9.86,0,0,1-.37,2.68H44.3a9.86,9.86,0,0,1-.37-2.68V43.53a9.91,9.91,0,0,1,9.91-9.91h69.25A9.91,9.91,0,0,1,133,43.53Z"/><path class="cls-6" d="M138.53,36.29V88.37a9.91,9.91,0,0,1-9.91,9.91H59.38a9.91,9.91,0,0,1-9.91-9.91V36.29a9.91,9.91,0,0,1,9.91-9.91h69.24A9.91,9.91,0,0,1,138.53,36.29Z"/><path class="cls-7" d="M138.53,36.29v8.55H49.47V36.29a9.91,9.91,0,0,1,9.91-9.91h69.24A9.91,9.91,0,0,1,138.53,36.29Z"/><circle class="cls-8" cx="58.48" cy="35.61" r="2.81"/><circle class="cls-9" cx="67.26" cy="35.61" r="2.81"/><circle class="cls-10" cx="76.04" cy="35.61" r="2.81"/><polyline class="cls-11" points="187.72 98.28 160.21 98.28 116.43 98.28 69.11 98.28 12.62 98.28 0.28 98.28"/><path class="cls-12" d="M88.57,59.35H97a1.34,1.34,0,0,1,1.34,1.34v3a0,0,0,0,1,0,0H87.23a0,0,0,0,1,0,0v-3A1.34,1.34,0,0,1,88.57,59.35Z"/><path class="cls-12" d="M88.57,77.61H97A1.34,1.34,0,0,1,98.38,79v3a0,0,0,0,1,0,0H87.23a0,0,0,0,1,0,0V79A1.34,1.34,0,0,1,88.57,77.61Z" transform="translate(185.61 159.55) rotate(180)"/><path class="cls-12" d="M79.25,68.81h8.46a1.34,1.34,0,0,1,1.34,1.34v3a0,0,0,0,1,0,0H77.9a0,0,0,0,1,0,0v-3A1.34,1.34,0,0,1,79.25,68.81Z" transform="translate(12.5 154.45) rotate(-90)"/><path class="cls-12" d="M97.51,68.81H106a1.34,1.34,0,0,1,1.34,1.34v3a0,0,0,0,1,0,0H96.16a0,0,0,0,1,0,0v-3A1.34,1.34,0,0,1,97.51,68.81Z" transform="translate(172.71 -30.76) rotate(90)"/><rect class="cls-13" x="83.34" y="61.38" width="19.06" height="19.06" rx="4"/><rect class="cls-6" x="85.64" y="63.68" width="14.45" height="14.45" rx="4"/><rect class="cls-12" x="88.1" y="66.14" width="9.53" height="9.53" rx="1.97"/><rect class="cls-12" x="89.28" y="55.53" width="0.6" height="4.74"/><rect class="cls-12" x="92.5" y="54.4" width="0.6" height="5.87"/><rect class="cls-12" x="95.72" y="55.53" width="0.6" height="4.74"/><rect class="cls-12" x="79.56" y="71.82" width="0.6" height="4.74" transform="translate(5.67 154.06) rotate(-90)"/><rect class="cls-12" x="79" y="68.04" width="0.6" height="5.87" transform="translate(8.32 150.27) rotate(-90)"/><rect class="cls-12" x="79.56" y="65.38" width="0.6" height="4.74" transform="translate(12.11 147.62) rotate(-90)"/><rect class="cls-12" x="95.86" y="81.55" width="0.6" height="4.74" transform="translate(192.31 167.83) rotate(-180)"/><rect class="cls-12" x="92.64" y="81.55" width="0.6" height="5.87" transform="translate(185.87 168.96) rotate(-180)"/><rect class="cls-12" x="89.41" y="81.55" width="0.6" height="4.74" transform="translate(179.43 167.83) rotate(-180)"/><rect class="cls-12" x="105.58" y="65.25" width="0.6" height="4.74" transform="translate(173.5 -38.26) rotate(90)"/><rect class="cls-12" x="106.14" y="67.91" width="0.6" height="5.87" transform="translate(177.28 -35.6) rotate(90)"/><rect class="cls-12" x="105.58" y="71.69" width="0.6" height="4.74" transform="translate(179.94 -31.81) rotate(90)"/></g></g></g></svg>