<svg xmlns="http://www.w3.org/2000/svg" xmlns:xlink="http://www.w3.org/1999/xlink" width="121" height="23" viewBox="0 0 121 23">
    <defs>
        <path id="a" d="M.033.062H10.58V12.18H.033z"/>
        <path id="c" d="M0 .023h6.465V16.51H0z"/>
        <path id="e" d="M1.171.06C.114.193.162 2.245.015 3.957l8.745.854a3.993 3.993 0 0 0 4.362-3.586L1.172.058H1.17z"/>
        <linearGradient id="f" x1="5.004%" x2="26.426%" y1="44.401%" y2="47.26%">
            <stop offset="0%" stop-color="#F08221"/>
            <stop offset="100%" stop-color="#F2B81A"/>
        </linearGradient>
        <path id="h" d="M1.212.022C.127.16.176 2.268.024 4.026l8.981.877a4.101 4.101 0 0 0 4.48-3.683L1.212.022z"/>
        <linearGradient id="i" x1="-32.294%" x2="61.882%" y1="49.114%" y2="50.284%">
            <stop offset="0%" stop-color="#215E70"/>
            <stop offset="100%" stop-color="#00B6B1"/>
        </linearGradient>
        <path id="k" d="M.055.012h6.657v16.966H.055z"/>
    </defs>
    <g fill="none" fill-rule="evenodd">
        <path fill="#213043" d="M44.223 16.862a3.381 3.381 0 0 1-3.01 3.352c-.488.056-1.004.084-1.546.084-2.351 0-4.235-.742-5.652-2.227-1.417-1.484-2.125-3.432-2.125-5.844 0-2.593.797-4.688 2.39-6.286 1.594-1.597 3.608-2.396 6.043-2.396.265 0 .522.006.772.019 1.758.09 3.128 1.556 3.128 3.316-1.093-.648-2.299-.972-3.618-.972-1.756 0-3.178.561-4.267 1.684-1.09 1.123-1.634 2.623-1.634 4.5 0 1.785.509 3.208 1.526 4.267 1.018 1.059 2.356 1.588 4.013 1.588 1.53 0 2.857-.362 3.98-1.085M53.357 14.341l-2.43.339c-.754.098-1.321.28-1.702.548-.38.268-.57.737-.57 1.408 0 .49.174.891.525 1.204.35.312.82.469 1.407.469.8 0 1.46-.281 1.984-.842.524-.562.786-1.268.786-2.12v-1.006zm2.532 5.686h-2.543v-1.809H53.3c-.8 1.387-1.971 2.08-3.516 2.08-1.138 0-2.03-.309-2.674-.927-.644-.617-.966-1.435-.966-2.453 0-2.185 1.258-3.459 3.775-3.82l3.437-.487c0-1.65-.784-2.475-2.351-2.475-1.38 0-2.623.474-3.731 1.424 0-1.59 1.119-3 2.687-3.259a9.473 9.473 0 0 1 1.54-.121c2.925 0 4.387 1.44 4.387 4.318v7.53zM58.365 17.235c.98.746 2.061 1.12 3.244 1.12 1.583 0 2.374-.468 2.374-1.403 0-.264-.067-.488-.203-.672a1.948 1.948 0 0 0-.548-.492 4.322 4.322 0 0 0-.814-.384 111.78 111.78 0 0 1-1.046-.385 10.954 10.954 0 0 1-1.283-.6c-.38-.21-.697-.45-.95-.717a2.704 2.704 0 0 1-.57-.91 3.35 3.35 0 0 1-.193-1.187c0-.558.132-1.05.396-1.475a3.438 3.438 0 0 1 1.063-1.074c.444-.29.95-.509 1.514-.656a6.937 6.937 0 0 1 1.92-.219c1.506.024 2.704 1.273 2.704 2.78-.814-.558-1.748-.837-2.804-.837-.331 0-.63.034-.898.102a2.32 2.32 0 0 0-.684.282c-.189.121-.336.266-.441.436-.106.17-.158.356-.158.56 0 .248.052.46.158.633.105.173.262.326.47.457.206.132.455.253.745.362.29.11.624.228 1 .356.498.204.945.411 1.34.622.396.21.733.45 1.012.718.279.267.493.576.644.927.151.35.226.767.226 1.249 0 .588-.135 1.1-.406 1.537a3.394 3.394 0 0 1-1.086 1.085c-.452.287-.974.5-1.565.64-.592.139-1.216.208-1.871.208-.105 0-.208-.001-.31-.004a3.062 3.062 0 0 1-2.98-3.06M79.358 20.027a2.623 2.623 0 0 1-2.623-2.623v-3.707c0-2.292-.765-3.437-2.295-3.437-.768 0-1.417.332-1.944.995-.528.663-.791 1.51-.791 2.543v6.23H69.07V5.522a2.634 2.634 0 0 1 2.634-2.634v7.484h.045c.874-1.462 2.125-2.193 3.753-2.193 2.57 0 3.855 1.571 3.855 4.714v7.133zM89.091 5.026a2.385 2.385 0 0 0-1.21-.305c-1.273 0-1.91.72-1.91 2.159V8.45h2.69a2.057 2.057 0 0 1-2.057 2.057h-.622v9.52H83.36v-9.52H81.38v-.078c0-1.093.886-1.979 1.979-1.979V6.574c0-1.22.399-2.183 1.198-2.888.799-.704 1.797-1.057 2.996-1.057.648 0 1.16.072 1.537.215v2.182zM97.242 10.95c-.317-.25-.773-.374-1.368-.374-.776 0-1.424.351-1.944 1.052-.52.7-.78 1.654-.78 2.86v5.54h-2.623v-8.954a2.623 2.623 0 0 1 2.622-2.623v2.385h.046c.256-.814.65-1.448 1.181-1.904.531-.456 1.125-.684 1.78-.684.475 0 .837.071 1.086.214v2.488zM106.161 13.097c-.007-.942-.23-1.674-.667-2.198-.437-.524-1.04-.786-1.809-.786-.753 0-1.392.275-1.916.825-.523.55-.846 1.27-.966 2.16h5.358zm2.532 1.854h-7.89c.03 1.07.36 1.896.99 2.476.628.58 1.493.87 2.593.87 1.236 0 2.37-.369 3.403-1.107v2.114c-1.055.663-2.45.994-4.182.994-1.704 0-3.04-.525-4.008-1.577-.969-1.05-1.453-2.53-1.453-4.437 0-1.8.533-3.268 1.6-4.403 1.066-1.134 2.39-1.701 3.973-1.701 1.583 0 2.808.509 3.675 1.526.866 1.017 1.3 2.43 1.3 4.24v1.005z"/>
        <g transform="translate(110.412 8.118)">
            <mask id="b" fill="#fff">
                <use xlink:href="#a"/>
            </mask>
            <path fill="#213043" d="M8.048 4.98c-.007-.942-.23-1.675-.667-2.2-.437-.523-1.04-.785-1.809-.785-.753 0-1.392.275-1.916.825-.523.55-.846 1.27-.966 2.16h5.358zm2.532 1.854H2.69c.03 1.07.36 1.895.989 2.475.63.58 1.494.87 2.594.87 1.236 0 2.37-.368 3.403-1.107v2.114c-1.055.663-2.45.995-4.183.995-1.703 0-3.039-.526-4.007-1.577C.517 9.552.033 8.074.033 6.167c0-1.802.533-3.27 1.6-4.404C2.699.63 4.023.062 5.606.062c1.583 0 2.808.509 3.675 1.526.866 1.018 1.3 2.43 1.3 4.24v1.006z" mask="url(#b)"/>
        </g>
        <g transform="translate(0 6.353)">
            <mask id="d" fill="#fff">
                <use xlink:href="#c"/>
            </mask>
            <path fill="#F2B81A" d="M6.465.185c-1.057.136-1.01 2.187-1.157 3.9l-.853 8.744A4.078 4.078 0 0 1 0 16.492L1.312 3.044A3.346 3.346 0 0 1 4.966.039l1.499.146z" mask="url(#d)"/>
        </g>
        <g transform="translate(5.294 6.48)">
            <mask id="g" fill="#fff">
                <use xlink:href="#e"/>
            </mask>
            <path fill="url(#f)" d="M1.171.06C.114.193.162 2.245.015 3.957l8.745.854a3.993 3.993 0 0 0 4.362-3.586L1.172.058H1.17z" mask="url(#g)"/>
        </g>
        <g transform="translate(13.108 .24)">
            <mask id="j" fill="#fff">
                <use xlink:href="#h"/>
            </mask>
            <path fill="url(#i)" d="M1.212.022C.127.16.176 2.268.024 4.026l8.981.877a4.101 4.101 0 0 0 4.48-3.683L1.212.022z" mask="url(#j)"/>
        </g>
        <g transform="translate(7.626 .051)">
            <mask id="l" fill="#fff">
                <use xlink:href="#k"/>
            </mask>
            <path fill="#00B7B1" d="M6.712.173C5.609.35 5.659 2.457 5.507 4.215l-.876 8.981a4.188 4.188 0 0 1-4.576 3.762L1.402 3.147C1.587 1.258 3.268-.123 5.173.023l1.539.15z" mask="url(#l)"/>
        </g>
    </g>
</svg>
