<svg xmlns="http://www.w3.org/2000/svg" viewBox="0 0 188 120"><defs><style>.cls-1{isolation:isolate;}.cls-2{fill:#4d3475;}.cls-3{fill:#654c95;}.cls-4{fill:#a38ac3;}.cls-5{fill:none;stroke:#6a5594;stroke-miterlimit:10;}.cls-6{fill:#6a5594;opacity:0.24;mix-blend-mode:multiply;}.cls-7{fill:#fff;}.cls-8{fill:#f4f6ff;}.cls-9{fill:#00b7b1;}</style></defs><title>Asset 8</title><g class="cls-1"><g id="Layer_2" data-name="Layer 2"><g id="Layer_1-2" data-name="Layer 1"><path class="cls-2" d="M137.65,22.27a1.5,1.5,0,0,0,0-3,1.5,1.5,0,0,0,0,3Z"/><rect class="cls-3" width="188" height="120" rx="6"/><path class="cls-4" d="M87.78,85.44A29.13,29.13,0,0,1,85,97.85H32A29.27,29.27,0,1,1,87.78,85.44Z"/><path class="cls-2" d="M169.16,75.89a50.45,50.45,0,0,1-5,22H72.9a50.63,50.63,0,1,1,96.26-22Z"/><polyline class="cls-5" points="186.49 97.85 164.17 97.85 159.34 97.85 127.8 97.85 116.14 97.85 85.03 97.85 72.97 97.85 72.9 97.85 32 97.85 13.69 97.85 1.51 97.85"/><path class="cls-6" d="M127.8,37.63V97.85H73V37.63a4.78,4.78,0,0,1,4.77-4.78H123A4.78,4.78,0,0,1,127.8,37.63Z"/><rect class="cls-7" x="69.47" y="16.94" width="49.06" height="78.13"/><path class="cls-8" d="M116.65,14.51H71.35a4.77,4.77,0,0,0-4.77,4.77v73.8a4.78,4.78,0,0,0,4.77,4.77h45.3a4.78,4.78,0,0,0,4.77-4.77V19.28A4.77,4.77,0,0,0,116.65,14.51Zm1.88,74.19a4.77,4.77,0,0,1-4.77,4.77H74.24a4.77,4.77,0,0,1-4.77-4.77v-65a4.76,4.76,0,0,1,4.77-4.77H85a1.51,1.51,0,0,1,1.52,1.51h0A1.5,1.5,0,0,0,88,21.91h12a1.51,1.51,0,0,0,1.51-1.51h0A1.51,1.51,0,0,1,103,18.89h10.81a4.76,4.76,0,0,1,4.77,4.77Z"/><polygon class="cls-9" points="94.52 53.33 90.36 55.52 91.15 50.88 87.78 47.6 92.44 46.92 94.52 42.7 96.6 46.92 101.26 47.6 97.89 50.88 98.69 55.52 94.52 53.33"/><polygon class="cls-9" points="83.29 64.56 79.13 66.75 79.92 62.11 76.55 58.83 81.21 58.15 83.29 53.93 85.37 58.15 90.03 58.83 86.66 62.11 87.45 66.75 83.29 64.56"/><polygon class="cls-9" points="106.26 64.56 102.1 66.75 102.89 62.11 99.52 58.83 104.18 58.15 106.26 53.93 108.34 58.15 113 58.83 109.63 62.11 110.42 66.75 106.26 64.56"/></g></g></g></svg>