<svg xmlns="http://www.w3.org/2000/svg" viewBox="0 0 189.1 120"><defs><style>.cls-1{isolation:isolate;}.cls-2{fill:#654c95;}.cls-3{fill:#4d3475;}.cls-4{fill:#a38ac3;}.cls-5{fill:none;stroke:#6a5594;stroke-miterlimit:10;}.cls-6{fill:#6a5594;opacity:0.24;mix-blend-mode:multiply;}.cls-7{fill:#fff;}.cls-8{fill:#f4f6ff;}.cls-9{fill:#029b93;}.cls-10{fill:#00b7b1;}</style></defs><title>Asset 10</title><g class="cls-1"><g id="Layer_2" data-name="Layer 2"><g id="Layer_1-2" data-name="Layer 1"><rect class="cls-2" x="0.55" width="188" height="120" rx="6"/><path class="cls-3" d="M88.2,83.83a29.73,29.73,0,0,1-2.82,12.68H31.17a29.93,29.93,0,1,1,57-12.68Z"/><path class="cls-4" d="M171.39,74.06a51.62,51.62,0,0,1-5.11,22.45H73a51.76,51.76,0,1,1,98.41-22.45Z"/><polyline class="cls-5" points="189.1 96.51 166.28 96.51 161.35 96.51 129.1 96.51 117.18 96.51 85.38 96.51 73.05 96.51 72.98 96.51 31.18 96.51 12.45 96.51 0 96.51"/><path class="cls-6" d="M129.1,35V96.51h-56V35a4.88,4.88,0,0,1,4.88-4.88h46.3A4.87,4.87,0,0,1,129.1,35Z"/><rect class="cls-7" x="69.47" y="13.8" width="50.16" height="79.87"/><path class="cls-8" d="M117.7,11.31H71.4a4.87,4.87,0,0,0-4.87,4.88V91.63a4.88,4.88,0,0,0,4.87,4.88h46.3a4.89,4.89,0,0,0,4.88-4.88V16.19A4.88,4.88,0,0,0,117.7,11.31Zm1.93,75.84A4.87,4.87,0,0,1,114.75,92H74.35a4.88,4.88,0,0,1-4.88-4.88V20.66a4.88,4.88,0,0,1,4.88-4.87h11a1.54,1.54,0,0,1,1.55,1.55h0a1.54,1.54,0,0,0,1.55,1.54h12.21a1.55,1.55,0,0,0,1.55-1.54h0a1.54,1.54,0,0,1,1.54-1.55h11a4.87,4.87,0,0,1,4.88,4.87Z"/><path class="cls-9" d="M83.52,63.25l1.13-16.64h20.93a.71.71,0,0,1,.71.76l-1.08,15.88"/><path class="cls-10" d="M103.73,47.19H91.57V45a.76.76,0,0,0-.76-.77H85.56a.76.76,0,0,0-.77.77v2.21H83.58a.77.77,0,0,0-.77.81l.71,15.25h21.69l-.71-15.32A.78.78,0,0,0,103.73,47.19Z"/></g></g></g></svg>