<svg viewBox="0 0 188 120" xmlns="http://www.w3.org/2000/svg"><rect fill="#654c95" height="120" rx="6" width="188"/><path d="m132.59 76.59a49 49 0 0 1 -5.66 22.85h-104.12a49.1 49.1 0 0 1 -5.65-22.85c0-29.22 25.84-52.89 57.71-52.89a60.81 60.81 0 0 1 36.3 11.76 53.44 53.44 0 0 1 17.64 22.25c.57 1.39 1.09 2.8 1.54 4.24a48.76 48.76 0 0 1 2.24 14.64z" fill="#a38ac3"/><path d="m170.84 99.44h-91.37c0-23.11 20.45-41.86 45.69-41.86 1.23 0 2.44.05 3.65.13l1.54.14c22.78 2.36 40.49 20.09 40.49 41.59z" fill="#4d3475"/><path d="m132.59 45.27v51.53a9.57 9.57 0 0 1 -.37 2.64h-87.39a9.2 9.2 0 0 1 -.37-2.64v-51.53a9.81 9.81 0 0 1 9.8-9.81h68.52a9.81 9.81 0 0 1 9.81 9.81z" fill="#6a5594" opacity=".24"/><path d="m138.06 38.11v51.53a9.79 9.79 0 0 1 -9.8 9.8h-68.52a9.79 9.79 0 0 1 -9.8-9.8v-51.53a9.8 9.8 0 0 1 9.8-9.8h68.52a9.8 9.8 0 0 1 9.8 9.8z" fill="#fff"/><path d="m138.06 38.11v8.46h-88.12v-8.46a9.8 9.8 0 0 1 9.8-9.8h68.52a9.8 9.8 0 0 1 9.8 9.8z" fill="#f4f6ff"/><circle cx="58.85" cy="37.44" fill="#e79005" r="2.78"/><circle cx="67.54" cy="37.44" fill="#f9cf59" r="2.78"/><circle cx="76.23" cy="37.44" fill="#f5b900" r="2.78"/><path d="m188 99.44h-27.59-43.91-47.46-56.66-12.38" fill="none" stroke="#6a5594" stroke-miterlimit="10"/><path d="m105.83 74.29v-4.73h-5.12a6.63 6.63 0 0 0 -.36-.87l3.65-3.63-3.34-3.34-3.66 3.62a6.63 6.63 0 0 0 -.87-.36v-5.12h-4.73v5.14a7.39 7.39 0 0 0 -.88.36l-3.62-3.64-3.34 3.34 3.62 3.63a6.63 6.63 0 0 0 -.36.87h-5.13v4.73h5.13a6.77 6.77 0 0 0 .36.88l-3.62 3.62 3.34 3.35 3.62-3.63c.29.14.58.26.88.37v5.12h4.73v-5.12a8.41 8.41 0 0 0 .87-.37l3.63 3.63 3.37-3.35-3.62-3.62a6.77 6.77 0 0 0 .36-.88zm-9.64-2.36a2.43 2.43 0 1 1 -2.43-2.43 2.42 2.42 0 0 1 2.43 2.43z" fill="#00b7b1"/></svg>